<?xml version="1.0" encoding="utf-8"?>
<!-- Generator: Adobe Illustrator 26.0.1, SVG Export Plug-In . SVG Version: 6.00 Build 0)  -->
<svg version="1.1" id="Layer_1" xmlns="http://www.w3.org/2000/svg" xmlns:xlink="http://www.w3.org/1999/xlink" x="0px" y="0px"
	 viewBox="0 0 841.9 355.4" style="enable-background:new 0 0 841.9 355.4;" xml:space="preserve">
<style type="text/css">
	.st0{fill:#FFFFFF;}
</style>
<g>
	<path class="st0" d="M111,38.8c1.8,0,4.1,0.1,6.8,0.3c2.7,0.2,5.5,0.4,8.4,0.8c2.9,0.3,5.4,0.6,7.5,1c2.1,0.3,3.6,0.7,4.5,1
		l-1.6,18.5h-1.4c0-4.7-1.8-8.6-5.3-11.4c-3.5-2.9-8.2-4.3-14-4.3c-5.3,0-9.6,1.3-12.8,3.8c-3.2,2.6-5,5.7-5.1,9.3
		c-0.1,2.7,0.8,5.1,2.6,7.1c1.8,2,4.2,3.9,7,5.6l26.2,17c4.2,2.4,7.4,5.5,9.5,9.3c2.1,3.8,3.1,8.3,2.8,13.4
		c-0.5,9-3.9,15.9-10.3,20.9c-6.4,5-15.1,7.5-26,7.5c-4,0-7.9-0.3-11.7-1c-3.8-0.7-7.1-1.6-10.1-2.9c-2.9-1.2-5.3-2.7-7-4.5
		c-0.7-2-1.1-4.4-1-7.3c0.1-2.8,0.5-5.7,1.3-8.6c0.8-2.9,1.8-5.3,2.9-7.3h1.2c-0.4,4.7,0.5,9,2.5,12.9c2.1,4,5.1,7.1,9,9.5
		c4,2.3,8.7,3.4,14.2,3.4c6-0.1,10.7-1.6,14-4.6c3.3-3,4.9-6.6,4.9-10.8c0-2.8-0.8-5.4-2.5-7.7c-1.7-2.3-4.5-4.5-8.3-6.6l-24-15.9
		c-4.8-2.7-8.4-6.3-10.5-10.5c-2.2-4.3-3.1-8.9-2.6-14c0.5-4.7,1.9-8.9,4.2-12.5c2.4-3.6,5.6-6.4,9.8-8.4
		C100.2,39.8,105.2,38.8,111,38.8z M138.2,40.2l-0.3,2.9h-16.2v-2.9H138.2z"/>
	<path class="st0" d="M165.8,40.7v8.2h-0.4c0-2-0.7-3.7-2.1-4.9c-1.4-1.3-3.1-1.9-5.1-1.9h-2.2v-1.4H165.8z M186,40.7V101
		c0,6.5,1.1,12.1,3.2,16.9c2.1,4.8,5.2,8.4,9.2,11c4,2.6,8.7,3.8,14.2,3.8c5.6,0,10.4-1.2,14.5-3.6c4.1-2.4,7.2-5.9,9.4-10.3
		c2.2-4.5,3.3-9.8,3.3-15.9V40.7h9.9V102c0,7.5-1.6,14-4.7,19.5c-3.2,5.5-7.7,9.7-13.6,12.7c-5.9,3-13,4.5-21.3,4.5
		c-9.7,0-17.9-1.5-24.5-4.5c-6.7-3-11.7-7.2-15-12.6c-3.3-5.4-5-11.9-5-19.4V40.7H186z M195.4,40.7v1.4h-2.2c-2,0-3.7,0.6-5.1,1.9
		c-1.4,1.3-2.1,2.9-2.1,4.9h-0.3v-8.2H195.4z M240.1,40.7v8.2h-0.4c0-2-0.7-3.7-2.1-4.9c-1.4-1.3-3.1-1.9-5.1-1.9h-2.2v-1.4H240.1z
		 M259,40.7v1.4h-2.2c-2,0-3.7,0.6-5.1,1.9c-1.4,1.3-2.1,2.9-2.1,4.9h-0.3v-8.2H259z"/>
	<path class="st0" d="M275.1,126.6v10h-15.2v-1.4c0.1,0,0.8,0,2.2,0c2.5,0,4.7-0.8,6.6-2.3c1.9-1.5,3.1-3.6,3.4-6.4H275.1z
		 M283.4,38.8h1.2l4.8,13.7l-9.2,84.1h-9.6L283.4,38.8z M281.1,128.8c0,0.1,0,0.2,0,0.3c0,0.1,0,0.2,0,0.4c0,1.5,0.5,2.8,1.6,4
		c1,1.2,2.3,1.8,3.8,1.8h2.1v1.2h-8.4v-7.8H281.1z M284.6,38.8l44.8,73.6l-7.8,27l-40.6-68.1L284.6,38.8z M367.9,38.8l1.1,14.9
		l-40.7,70.6c-1.8,3.2-3.2,5.9-4,8.2c-0.9,2.3-1.3,4.6-1.3,6.9h-1.4l-5.3-11.9L367.9,38.8z M359.3,128.8h1v7.8h-8.4v-1.2h2.1
		c1.6,0,2.8-0.6,3.8-1.8c1-1.2,1.5-2.6,1.5-4c0-0.2,0-0.3,0-0.4C359.3,129,359.3,128.9,359.3,128.8z M369.2,38.8l13,97.8h-22.1
		l-6.8-63l14.7-34.8H369.2z M377.9,126.6h2.9c0.5,2.7,1.6,4.9,3.6,6.4c1.9,1.5,4.1,2.3,6.4,2.3h2.2v1.4h-15.1V126.6z"/>
	<path class="st0" d="M410.9,126.6c-0.7,1.8-0.9,3.4-0.4,4.7c0.5,1.3,1.2,2.3,2.3,2.9c1.1,0.7,2.2,1,3.3,1h1.2v1.4H388v-1.4h1.2
		c2.1,0,4.3-0.7,6.5-2c2.2-1.3,4.1-3.5,5.5-6.6H410.9z M440.3,38l0.5,16.7l-34,81.5h-10l35.5-80.3c0.3-0.5,0.8-1.6,1.4-3.1
		c0.7-1.5,1.4-3.2,2.2-5.1c0.8-1.9,1.5-3.8,2.1-5.5c0.6-1.8,1-3.2,1-4.2H440.3z M454.7,104v5.8h-40.3V104H454.7z M440.3,38
		l44.8,97.8h-24.7L432,64.4L440.3,38z M456.8,126.6h24c1.6,3.1,3.4,5.3,5.6,6.6c2.2,1.3,4.3,2,6.4,2h1.1v1.4h-43.6v-1.4h1.2
		c1.8,0,3.4-0.8,4.8-2.3C457.7,131.5,457.9,129.4,456.8,126.6z"/>
	<path class="st0" d="M480.1,38.1c0.9,0.4,2.3,0.7,4.2,1.1c1.9,0.4,3.9,0.7,6.2,1c2.3,0.3,4.4,0.4,6.3,0.4l-16.7,1.5V38.1z
		 M567.8,40.6v5.8h-87.7v-5.8H567.8z M495.3,45.9v0.4c-4.2,0.1-7.6,1.4-10.1,3.9c-2.5,2.5-3.8,5.9-3.8,10.2v1.5l-1.4,0.1V45.9H495.3
		z M514.1,126.6v10h-11v-1.4h1.8c2.4,0,4.4-0.8,6.1-2.5c1.7-1.7,2.6-3.7,2.7-6.1H514.1z M534.2,41.1v95.5h-20.5V41.1H534.2z
		 M533.8,126.6h0.4c0.1,2.4,1,4.4,2.7,6.1c1.7,1.7,3.7,2.5,6.1,2.5h1.8v1.4h-11V126.6z M567.8,38.1v4l-16.7-1.5c2,0,4.1-0.1,6.4-0.4
		c2.2-0.3,4.3-0.6,6.2-1C565.6,38.8,567,38.5,567.8,38.1z M567.8,45.9v16.2l-1.4-0.1v-1.5c0-4.3-1.3-7.7-3.8-10.2
		c-2.5-2.5-5.9-3.8-10.2-3.9v-0.4H567.8z"/>
	<path class="st0" d="M586.9,50.7h-0.4c-0.1-2.4-1-4.4-2.7-6.1c-1.7-1.7-3.7-2.5-6.1-2.5c-0.1,0-0.4,0-0.9,0c-0.5,0-0.8,0-0.9,0
		v-1.4h11V50.7z M586.9,126.6v10h-11v-1.4c0.1,0,0.4,0,0.9,0c0.5,0,0.8,0,0.9,0c2.4,0,4.4-0.8,6.1-2.5c1.7-1.7,2.6-3.7,2.7-6.1
		H586.9z M607,40.7v95.9h-20.5V40.7H607z M622.9,40.7c4.1,0,8.1,0.5,12.1,1.4c3.9,0.9,7.4,2.4,10.5,4.4c3.1,2,5.5,4.7,7.3,7.9
		c1.8,3.3,2.7,7.4,2.7,12.2c0,3.8-0.8,7.7-2.4,11.4c-1.6,3.8-4,7-7.3,9.7c-3.3,2.7-7.5,4.3-12.7,4.9c2.9,0.9,5.6,2.6,8,4.9
		c2.4,2.4,4.4,4.8,6,7.1c0.1,0.2,0.6,1,1.6,2.5c1,1.5,2.1,3.3,3.6,5.4c1.4,2.1,2.9,4.3,4.5,6.5c1.6,2.2,3,4.1,4.2,5.8
		c2,2.5,3.8,4.5,5.5,6c1.6,1.5,3.4,2.6,5.2,3.3c1.8,0.7,3.9,1.1,6.3,1.2v1.4h-13.4c-4.9,0-9.4-0.4-13.4-1.3c-4-0.9-7.6-2.4-10.7-4.5
		c-3.1-2.1-5.8-4.9-8.1-8.5c-0.7-1.1-1.5-2.5-2.4-4.2c-0.9-1.7-1.8-3.5-2.7-5.4c-0.9-1.9-1.8-3.8-2.7-5.5c-0.9-1.8-1.6-3.4-2.3-4.9
		c-0.6-1.5-1.1-2.6-1.4-3.4c-1.2-2.9-2.6-5.1-4.2-6.6c-1.6-1.5-3.3-2.3-5.1-2.6v-1.4c0.3,0,0.8,0,1.6,0c0.8,0,1.7,0,2.6,0
		c2.5,0,4.9-0.5,7.2-1.5c2.3-1,4.4-2.6,6.2-4.9c1.8-2.3,3.1-5.4,3.8-9.5c0.2-0.8,0.3-1.8,0.5-2.9c0.1-1.1,0.2-2.3,0.1-3.7
		c-0.3-6.6-1.9-11.4-4.9-14.5c-3-3.1-6.8-4.6-11.2-4.7c-1.3-0.1-2.7-0.1-4.2-0.1c-1.5,0-2.9,0.1-4.1,0.1c-1.2,0-2.1,0-2.5,0
		c0-0.1-0.1-0.6-0.3-1.6c-0.2-1-0.6-2.4-1-4.5H622.9z M606.6,126.6h0.4c0,2.4,0.9,4.4,2.6,6.1c1.7,1.7,3.8,2.5,6.2,2.5
		c0.2,0,0.7,0,1.6,0v1.4h-10.8V126.6z"/>
	<path class="st0" d="M689.7,126.6c-0.7,1.8-0.9,3.4-0.4,4.7c0.5,1.3,1.2,2.3,2.3,2.9s2.2,1,3.3,1h1.2v1.4h-29.3v-1.4h1.2
		c2.1,0,4.3-0.7,6.5-2c2.2-1.3,4.1-3.5,5.5-6.6H689.7z M719.2,38l0.5,16.7l-34,81.5h-10l35.5-80.3c0.3-0.5,0.8-1.6,1.4-3.1
		c0.7-1.5,1.4-3.2,2.2-5.1c0.8-1.9,1.5-3.8,2.1-5.5c0.6-1.8,1-3.2,1-4.2H719.2z M733.5,104v5.8h-40.3V104H733.5z M719.2,38
		l44.8,97.8h-24.7l-28.5-71.4L719.2,38z M735.6,126.6h24c1.6,3.1,3.4,5.3,5.6,6.6c2.2,1.3,4.3,2,6.4,2h1.1v1.4h-43.6v-1.4h1.2
		c1.8,0,3.4-0.8,4.8-2.3C736.6,131.5,736.7,129.4,735.6,126.6z"/>
	<path class="st0" d="M111,203.2c1.8,0,4.1,0.1,6.8,0.3c2.7,0.2,5.5,0.4,8.4,0.8c2.9,0.3,5.4,0.6,7.5,1c2.1,0.3,3.6,0.7,4.5,1
		l-1.6,18.5h-1.4c0-4.7-1.8-8.6-5.3-11.4c-3.5-2.9-8.2-4.3-14-4.3c-5.3,0-9.6,1.3-12.8,3.8c-3.2,2.6-5,5.7-5.1,9.3
		c-0.1,2.7,0.8,5.1,2.6,7.1c1.8,2,4.2,3.9,7,5.6l26.2,17c4.2,2.4,7.4,5.5,9.5,9.3c2.1,3.8,3.1,8.3,2.8,13.4
		c-0.5,9-3.9,15.9-10.3,20.9c-6.4,5-15.1,7.5-26,7.5c-4,0-7.9-0.3-11.7-1c-3.8-0.7-7.1-1.6-10.1-2.9c-2.9-1.2-5.3-2.7-7-4.5
		c-0.7-2-1.1-4.4-1-7.3c0.1-2.8,0.5-5.7,1.3-8.6c0.8-2.9,1.8-5.3,2.9-7.3h1.2c-0.4,4.7,0.5,9,2.5,12.9c2.1,4,5.1,7.1,9,9.5
		c4,2.3,8.7,3.4,14.2,3.4c6-0.1,10.7-1.6,14-4.6c3.3-3,4.9-6.6,4.9-10.8c0-2.8-0.8-5.4-2.5-7.7c-1.7-2.3-4.5-4.5-8.3-6.6l-24-15.9
		c-4.8-2.7-8.4-6.3-10.5-10.5c-2.2-4.3-3.1-8.9-2.6-14c0.5-4.7,1.9-8.9,4.2-12.5c2.4-3.6,5.6-6.4,9.8-8.4
		C100.2,204.2,105.2,203.2,111,203.2z M138.2,204.6l-0.3,2.9h-16.2v-2.9H138.2z"/>
	<path class="st0" d="M178.9,215.1h-0.4c-0.1-2.4-1-4.4-2.7-6.1c-1.7-1.7-3.7-2.5-6.1-2.5h-1.8v-1.4h11V215.1z M178.9,291v10h-11
		v-1.4h1.8c2.4,0,4.4-0.8,6.1-2.5c1.7-1.7,2.6-3.7,2.7-6.1H178.9z M199,205.1V301h-20.5v-95.9H199z M236.8,205.1v5.9h-38.2v-5.9
		H236.8z M230.1,250.9v5.8h-31.5v-5.8H230.1z M235.2,295.1l3.3,5.9h-39.9v-5.9H235.2z M245.2,272.9l-6.3,28.1H212l4.9-5.9
		c4.6,0,8.6-0.9,12.1-2.7c3.5-1.8,6.4-4.3,8.9-7.7c2.5-3.3,4.4-7.3,5.9-11.9H245.2z M230.1,238v13.2h-13v-0.3
		c3.4-0.1,6.2-1.3,8.4-3.5c2.2-2.2,3.3-5,3.3-8.4v-1H230.1z M230.1,256.4v13.2h-1.4v-1.1c0-3.4-1.1-6.2-3.3-8.4
		c-2.2-2.2-5-3.3-8.4-3.4v-0.3H230.1z M236.8,202.6v4l-16.7-1.5c2,0,4.1-0.1,6.4-0.4c2.2-0.3,4.3-0.6,6.2-1
		C234.6,203.4,236,203,236.8,202.6z M236.8,210.6v16h-1.4V225c0-4.2-1.3-7.6-3.8-10.1c-2.5-2.6-5.9-3.9-10.2-4v-0.3H236.8z"/>
	<path class="st0" d="M275.7,215.1h-0.4c-0.1-2.4-1-4.4-2.7-6.1c-1.7-1.7-3.7-2.5-6.1-2.5h-1.8v-1.4h11V215.1z M275.7,291v10h-11
		v-1.4h1.8c2.4,0,4.4-0.8,6.1-2.5c1.7-1.7,2.6-3.7,2.7-6.1H275.7z M295.8,205.1V301h-20.5v-95.9H295.8z M295.4,215.1v-10h11v1.4
		c-0.1,0-0.7,0-1.8,0c-2.4,0-4.4,0.8-6.1,2.5c-1.7,1.7-2.6,3.7-2.7,6.1H295.4z M332,295.1l3.3,5.9h-39.9v-5.9H332z M342,272.9
		l-6.3,28.1h-26.9l4.9-5.9c4.6,0,8.6-0.9,12.1-2.7c3.5-1.8,6.4-4.3,8.9-7.7c2.5-3.3,4.4-7.3,5.9-11.9H342z"/>
	<path class="st0" d="M373.3,291c-0.7,1.8-0.9,3.4-0.4,4.7c0.5,1.3,1.2,2.3,2.3,2.9c1.1,0.7,2.2,1,3.3,1h1.2v1.4h-29.3v-1.4h1.2
		c2.1,0,4.3-0.7,6.5-2c2.2-1.3,4.1-3.5,5.5-6.6H373.3z M402.8,202.4l0.5,16.7l-34,81.5h-10l35.5-80.3c0.3-0.5,0.8-1.6,1.4-3.1
		c0.7-1.5,1.4-3.2,2.2-5.1c0.8-1.9,1.5-3.8,2.1-5.5c0.6-1.8,1-3.2,1-4.2H402.8z M417.2,268.4v5.8h-40.3v-5.8H417.2z M402.8,202.4
		l44.8,97.8h-24.7l-28.5-71.4L402.8,202.4z M419.2,291h24c1.6,3.1,3.4,5.3,5.6,6.6c2.2,1.3,4.3,2,6.4,2h1.1v1.4h-43.6v-1.4h1.2
		c1.8,0,3.4-0.8,4.8-2.3C420.2,295.9,420.3,293.8,419.2,291z"/>
	<path class="st0" d="M453.2,202.5c0.9,0.4,2.3,0.7,4.2,1.1c1.9,0.4,3.9,0.7,6.2,1c2.3,0.3,4.4,0.4,6.3,0.4l-16.7,1.5V202.5z
		 M540.9,205v5.8h-87.7V205H540.9z M468.4,210.3v0.4c-4.2,0.1-7.6,1.4-10.1,3.9c-2.5,2.5-3.8,5.9-3.8,10.2v1.5l-1.4,0.1v-16.2H468.4
		z M487.2,291v10h-11v-1.4h1.8c2.4,0,4.4-0.8,6.1-2.5c1.7-1.7,2.6-3.7,2.7-6.1H487.2z M507.3,205.5V301h-20.5v-95.5H507.3z
		 M506.9,291h0.4c0.1,2.4,1,4.4,2.7,6.1c1.7,1.7,3.7,2.5,6.1,2.5h1.8v1.4h-11V291z M540.9,202.5v4l-16.7-1.5c2,0,4.1-0.1,6.4-0.4
		c2.2-0.3,4.3-0.6,6.2-1C538.7,203.2,540,202.9,540.9,202.5z M540.9,210.3v16.2l-1.4-0.1v-1.5c0-4.3-1.3-7.7-3.8-10.2
		c-2.5-2.5-5.9-3.8-10.2-3.9v-0.4H540.9z"/>
	<path class="st0" d="M560.4,291c-0.7,1.8-0.9,3.4-0.4,4.7c0.5,1.3,1.2,2.3,2.3,2.9s2.2,1,3.3,1h1.2v1.4h-29.3v-1.4h1.2
		c2.1,0,4.3-0.7,6.5-2c2.2-1.3,4.1-3.5,5.5-6.6H560.4z M589.9,202.4l0.5,16.7l-34,81.5h-10l35.5-80.3c0.3-0.5,0.8-1.6,1.4-3.1
		c0.7-1.5,1.4-3.2,2.2-5.1c0.8-1.9,1.5-3.8,2.1-5.5c0.6-1.8,1-3.2,1-4.2H589.9z M604.3,268.4v5.8H564v-5.8H604.3z M589.9,202.4
		l44.8,97.8H610l-28.5-71.4L589.9,202.4z M606.3,291h24c1.6,3.1,3.4,5.3,5.6,6.6c2.2,1.3,4.3,2,6.4,2h1.1v1.4h-43.6v-1.4h1.2
		c1.8,0,3.4-0.8,4.8-2.3C607.3,295.9,607.4,293.8,606.3,291z"/>
	<path class="st0" d="M665.9,291.3v9.7h-11.4v-1.4c1.6,0,2.5,0,2.6,0c2.3,0,4.2-0.8,5.9-2.5c1.6-1.6,2.5-3.6,2.5-5.9H665.9z
		 M665.2,203.1l19.7,21l0.1,77h-19.6v-80.8c0-5.1-0.5-10.8-1.6-17.1H665.2z M665.2,203.1l87.4,83.3l1.6,16.6l-87.4-83.2L665.2,203.1
		z M685.1,291.3c0,2.3,0.8,4.2,2.5,5.9c1.6,1.6,3.6,2.5,5.9,2.5c0.1,0,1,0,2.6,0v1.4h-11.4v-9.7H685.1z M723.3,205.1h11.4v9.7h-0.3
		c-0.1-2.4-0.9-4.4-2.5-6c-1.6-1.6-3.6-2.4-6-2.4c-1.6,0-2.5,0-2.6,0V205.1z M753.8,205.1v80.3c0,3.4,0.1,6.4,0.4,9.1
		c0.3,2.7,0.7,5.5,1.2,8.4h-1.2l-19.9-22.2v-75.6H753.8z M764.8,205.1v1.4h-2.5c-2.3,0-4.2,0.8-5.9,2.4c-1.6,1.6-2.5,3.6-2.6,6h-0.4
		v-9.7H764.8z"/>
</g>
</svg>
